<svg height="496pt" viewBox="0 0 496 496" width="496pt" xmlns="http://www.w3.org/2000/svg"><path d="m470.414062 473.671875c-4.75 3.671875-8.183593 6.328125-15.796874 6.328125-7.617188 0-11.050782-2.65625-15.800782-6.328125-5.578125-4.3125-12.503906-9.671875-25.59375-9.671875-13.070312 0-20 5.359375-25.566406 9.671875-4.753906 3.671875-8.175781 6.328125-15.785156 6.328125-7.589844 0-11.015625-2.65625-15.757813-6.328125-4.097656-3.175781-8.953125-6.902344-16.433593-8.65625l35.785156-83.925781-98.679688-67.179688c32.175782 4.089844 55.957032 13.402344 56.253906 13.523438l8.121094 3.230468 28.023438-93.425781-4.054688-3.382812c-1.96875-1.640625-47.097656-38.527344-109.121094-41.558594v-13.640625c34.902344 1.558594 63.191407 12.65625 63.496094 12.777344l8.832032 3.511718 16.59375-78.433593-4.289063-3.039063c-1.402344-.992187-33.28125-23.105468-84.632813-25.257812v-24.214844h64v-64h-80.007812v88.183594c-51.023438 1.824218-82.726562 20.433594-84.121094 21.265625l-4.832031 2.894531 16.527344 82.65625 8.929687-3.574219c.304688-.121093 28.472656-11.21875 63.488282-12.769531v13.640625c-62.023438 3.03125-107.152344 39.917969-109.121094 41.558594l-4.054688 3.382812 28.03125 93.441407 8.121094-3.246094c.296875-.121094 24.023438-9.441406 56.261719-13.53125l-98.695313 67.1875 35.761719 83.871094c-7.609375 1.726562-12.511719 5.511718-16.648437 8.71875-4.738282 3.664062-8.160157 6.320312-15.753907 6.320312-7.582031 0-11.007812-2.65625-15.75-6.328125-5.558593-4.304687-12.480469-9.671875-25.542969-9.671875-13.066406 0-19.992187 5.359375-25.554687 9.671875-4.742187 3.671875-8.175781 6.328125-15.765625 6.328125-7.585938 0-11-2.65625-15.738281-6.328125-5.558594-4.304687-12.488281-9.671875-25.542969-9.671875v16c7.585938 0 11 2.65625 15.734375 6.328125 5.570313 4.304687 12.488281 9.671875 25.546875 9.671875 13.0625 0 19.992188-5.359375 25.558594-9.671875 4.746094-3.671875 8.160156-6.328125 15.761718-6.328125 7.582032 0 11.007813 2.65625 15.75 6.328125 5.558594 4.304687 12.480469 9.671875 25.542969 9.671875 13.066407 0 19.992188-5.359375 25.554688-9.671875 4.742187-3.671875 8.167969-6.328125 15.757812-6.328125 7.601563 0 11.023438 2.65625 15.769531 6.328125 5.566407 4.3125 12.496094 9.671875 25.558594 9.671875 13.074219 0 20-5.359375 25.570313-9.671875 4.742187-3.671875 8.167969-6.328125 15.765625-6.328125 7.601562 0 11.023437 2.65625 15.769531 6.328125 5.566406 4.3125 12.496094 9.671875 25.566406 9.671875 13.074219 0 20-5.359375 25.570313-9.671875 4.742187-3.671875 8.175781-6.328125 15.773437-6.328125 7.59375 0 11.015625 2.65625 15.761719 6.328125 5.566406 4.3125 12.496094 9.671875 25.558594 9.671875 13.074218 0 20.007812-5.359375 25.578125-9.671875 4.742187-3.671875 8.175781-6.328125 15.773437-6.328125 7.617188 0 11.050782 2.65625 15.800782 6.328125 5.578124 4.3125 12.511718 9.671875 25.59375 9.671875 13.078124 0 20.015624-5.359375 25.589843-9.671875 4.746094-3.671875 8.175781-6.328125 15.792969-6.328125v-16c-13.078125 0-20.007812 5.359375-25.585938 9.671875zm-214.414062-457.671875h48v32h-48zm-23 88.566406c4.800781-.351562 9.792969-.566406 15-.566406 5.199219 0 10.183594.257812 14.992188.671875l-6.449219 58.023437c-2.816407-.121093-5.648438-.230468-8.542969-.230468s-5.726562.109375-8.542969.230468zm-9.496094 59.425782c-3.335937.390624-6.558594.839843-9.679687 1.34375l-12.410157-55.847657c4.832032-1.160156 10.058594-2.199219 15.699219-3.074219zm55.335938-57.105469c5.574218 1.035156 10.734375 2.265625 15.519531 3.632812l-12.183594 54.816407c-3.121093-.503907-6.34375-.953126-9.679687-1.34375zm37.671875 66.5625c-4.679688-1.496094-11.0625-3.328125-18.625-5.074219l11.722656-52.75c7.773437 3.078125 13.75 6.136719 17.398437 8.222656zm-147.496094-52.824219c3.679687-1.769531 9.519531-4.25 16.976563-6.761719l12.113281 54.519531c-7.511719 1.730469-13.867188 3.554688-18.53125 5.042969zm-23.757813 122.390625c12.644532-9.128906 52.910157-35.015625 102.742188-35.015625s90.097656 25.886719 102.742188 35.015625l-19.980469 66.625c-14.433594-4.777344-46.175781-13.640625-82.761719-13.640625s-68.328125 8.863281-82.761719 13.640625zm102.742188 70.664063 107.585938 73.242187-7.058594 16.535156-100.527344-69.167969-100.527344 69.167969-7.058594-16.535156zm56.984375 159.992187c-4.746094 3.671875-8.175781 6.328125-15.777344 6.328125-7.597656 0-11.023437-2.65625-15.765625-6.328125-4.296875-3.328125-9.441406-7.257813-17.554687-8.886719l.113281-64.769531-16-.03125-.121094 64.800781c-8.125 1.628906-13.269531 5.558594-17.574218 8.886719-4.738282 3.671875-8.167969 6.328125-15.769532 6.328125-7.597656 0-11.023437-2.65625-15.765625-6.328125-4.226562-3.273437-9.25-7.136719-17.121093-8.816406l-19.785157-46.390625 86.136719-59.25v24.785156h16v-24.785156l86.128906 59.257812-19.761718 46.351563c-8.023438 1.648437-13.121094 5.542969-17.382813 8.847656zm0 0"/></svg>