<?xml version="1.0" encoding="iso-8859-1"?>
<!-- Generator: Adobe Illustrator 19.0.0, SVG Export Plug-In . SVG Version: 6.00 Build 0)  -->
<svg version="1.1" id="Capa_1" xmlns="http://www.w3.org/2000/svg" xmlns:xlink="http://www.w3.org/1999/xlink" x="0px" y="0px"
	 viewBox="0 0 512.001 512.001" style="enable-background:new 0 0 512.001 512.001;" xml:space="preserve">
<g>
	<g>
		<path d="M279.637,293.691c-3.118-2.726-7.857-2.408-10.583,0.71c-3.172,3.628-7.93,5.709-13.054,5.709
			c-5.124,0-9.882-2.081-13.053-5.709c-2.726-3.12-7.464-3.436-10.583-0.711c-3.119,2.727-3.437,7.464-0.711,10.583
			c6.021,6.888,14.895,10.838,24.347,10.838c9.452,0,18.327-3.95,24.347-10.837C283.074,301.155,282.756,296.417,279.637,293.691z"
			/>
	</g>
</g>
<g>
	<g>
		<path d="M324.95,137.796c-6.178-6.178-15.791-8.025-23.813-4.557l-19.911-22.5l19.911-22.5c2.669,1.154,5.571,1.76,8.563,1.76
			c24.998,0,28.771-37.034,4.94-42.57c-0.911-3.851-2.868-7.435-5.719-10.286c-8.318-8.318-22.199-8.311-30.51,0
			c-6.608,6.608-8.018,16.514-4.216,24.53l-18.194,20.559l-18.194-20.56c3.802-8.016,2.392-17.922-4.216-24.53
			c-11.71-11.71-32.423-5.81-36.228,10.286c-16.184,3.759-22.008,24.556-10.311,36.253c6.159,6.159,15.821,8.013,23.813,4.557
			l19.911,22.5l-19.911,22.5c-2.669-1.154-5.57-1.76-8.562-1.76c-18.861,0-28.534,23.543-15.251,36.827
			c2.879,2.879,6.435,4.843,10.311,5.743c0.911,3.851,2.868,7.435,5.719,10.286c8.316,8.315,22.206,8.305,30.509,0
			c6.608-6.607,8.018-16.514,4.216-24.529l18.194-20.56l18.194,20.561c-3.802,8.016-2.392,17.922,4.216,24.529
			c8.319,8.319,22.203,8.307,30.51,0c2.851-2.852,4.807-6.435,5.718-10.286c3.876-0.9,7.432-2.864,10.311-5.743
			C333.362,159.895,333.362,146.208,324.95,137.796z M314.344,157.7c-1.471,1.471-3.581,2.149-5.649,1.834
			c-4.926-0.752-9.299,3.619-8.547,8.546c0.321,2.103-0.347,4.163-1.833,5.649c-2.54,2.541-6.761,2.537-9.297,0.001
			c-2.547-2.547-2.558-6.705-0.023-9.268c2.777-2.808,2.901-7.287,0.284-10.244c0,0-27.628-31.221-27.661-31.259
			c-2.948-3.332-8.291-3.324-11.233,0l-27.662,31.259c-2.616,2.957-2.493,7.436,0.283,10.243c4.004,4.05,1.017,11.193-4.669,11.194
			c-3.979,0.001-7.08-3.665-6.483-7.574c0.753-4.933-3.622-9.296-8.545-8.547c-6.161,0.937-10.045-6.734-5.651-11.129
			c2.528-2.529,6.729-2.535,9.268-0.024c3.023,2.99,8.075,2.82,10.891-0.362l28.59-32.309c2.511-2.838,2.511-7.103,0-9.94
			l-28.59-32.309c-1.366-1.543-3.307-2.457-5.368-2.525c-2.04-0.062-4.056,0.714-5.523,2.163c-2.544,2.515-6.738,2.506-9.268-0.022
			c-4.381-4.378-0.476-12.063,5.649-11.131c2.355,0.36,4.748-0.423,6.435-2.111c1.687-1.688,2.471-4.076,2.111-6.436
			c-0.321-2.103,0.347-4.162,1.832-5.648c5.936-5.939,15.296,3.226,9.321,9.266c-2.777,2.808-2.901,7.288-0.284,10.245
			c0,0,27.637,31.232,27.662,31.259c2.943,3.326,8.293,3.323,11.233,0l27.661-31.259c2.617-2.958,2.493-7.437-0.284-10.245
			c-2.535-2.562-2.524-6.72,0.023-9.267c2.537-2.538,6.762-2.534,9.297,0c1.487,1.486,2.155,3.546,1.834,5.649
			c-0.36,2.359,0.423,4.749,2.111,6.436c1.687,1.687,4.077,2.471,6.435,2.111c6.156-0.939,10.042,6.737,5.65,11.13
			c-2.526,2.527-6.73,2.533-9.268,0.023c-3.021-2.988-8.077-2.818-10.891,0.361l-28.59,32.309c-2.511,2.838-2.511,7.103,0,9.94
			l28.59,32.309c1.366,1.544,3.307,2.457,5.368,2.525c2.043,0.066,4.057-0.713,5.523-2.162
			C311.161,142.364,320.202,151.84,314.344,157.7z"/>
	</g>
</g>
<g>
	<g>
		<path d="M457.136,193.66c0.614-1.018,1.23-2.039,1.838-3.045c23.162-38.354,38.463-63.693,29.191-80.124
			c-4.678-8.294-14.654-12.324-30.497-12.324c-32.172,0-49.007-15.042-67.673-34.708c-2.852-3.004-7.599-3.129-10.603-0.276
			c-3.004,2.852-3.128,7.599-0.277,10.603c20.451,21.546,40.478,39.381,78.553,39.381c9.535,0,15.727,1.667,17.435,4.694
			c1.337,2.369,1.649,8.014-4.456,21.455c-5.408,11.907-30.675,53.749-33.858,59.097H75.213
			c-3.183-5.348-28.45-47.189-33.858-59.097c-6.104-13.441-5.792-19.086-4.456-21.456c1.708-3.027,7.9-4.694,17.435-4.694
			c41.527,0,61.589-21.33,82.829-43.911C162.251,42.582,188.194,15,256.001,15c55.265,0,82.821,18.988,102.489,37.563
			c3.01,2.844,7.758,2.708,10.602-0.303s2.708-7.758-0.303-10.602C346.978,21.059,316.521,0,256.001,0
			C181.71,0,152.239,31.333,126.237,58.979c-19.778,21.028-36.859,39.188-71.902,39.188c-15.843,0-25.819,4.031-30.499,12.322
			c-9.272,16.431,6.029,41.77,29.191,80.125c0.608,1.006,1.224,2.027,1.838,3.045c-17.327,6.395-29.381,22.994-29.381,42.281
			c0,24.864,20.228,45.091,45.091,45.091c0.383,0,0.767-0.023,1.15-0.033c0.49,21.42,2.854,39.979,6.922,54.033
			c5.384,18.599,13.383,28.029,23.776,28.029c5.188,0,10.11-2.532,14.713-7.553c1.553,3.272,3.353,6.919,5.355,10.744
			c-11.993,7.944-26.754,20.629-38.431,39.85c-16.778,27.616-22.598,61.068-17.298,99.426c0.512,3.71,3.684,6.474,7.429,6.474
			h363.62c3.746,0,6.917-2.764,7.429-6.474c11.338-82.065-31.088-122.872-55.73-139.274c2.003-3.825,3.802-7.473,5.356-10.745
			c4.604,5.021,9.525,7.553,14.713,7.553c10.394,0,18.394-9.43,23.777-28.028c4.068-14.054,6.432-32.611,6.921-54.034
			c0.383,0.01,0.767,0.033,1.15,0.033c24.863,0,45.091-20.228,45.091-45.091C486.518,216.654,474.463,200.054,457.136,193.66z
			 M40.483,235.939c0-13.853,9.311-25.635,22.299-29.076c0.182,0.306,0.363,0.611,0.545,0.918c-0.043,0.827-0.064,1.65-0.096,2.475
			c-0.713,18.578,1.305,37.245,6.037,55.226c0.046,0.174,0.084,0.351,0.131,0.526C53.349,265.389,40.483,252.139,40.483,235.939z
			 M344.018,213.413h17.943c2.767,0,5.018,2.251,5.018,5.018c0,2.767-2.251,5.018-5.018,5.018h-17.943
			c-2.767,0-5.018-2.251-5.018-5.018C339,215.664,341.251,213.413,344.018,213.413z M150.041,213.413h17.942
			c2.767,0,5.018,2.251,5.018,5.018c0,2.767-2.251,5.018-5.018,5.018h-17.942c-2.767,0-5.018-2.251-5.018-5.018
			C145.023,215.664,147.274,213.413,150.041,213.413z M130.686,213.412c-0.417,1.607-0.662,3.283-0.662,5.018
			c-0.001,11.039,8.979,20.018,20.017,20.018h1.471v11.905c0,4.143,3.358,7.5,7.5,7.5c4.142,0,7.5-3.357,7.5-7.5v-11.905h1.471
			c11.038,0,20.018-8.979,20.018-20.018c0-1.735-0.245-3.411-0.662-5.018h137.324c-0.417,1.607-0.662,3.283-0.662,5.018
			c0,11.038,8.98,20.018,20.018,20.018h1.471v11.905c0,4.143,3.358,7.5,7.5,7.5c4.142,0,7.5-3.357,7.5-7.5v-11.905h1.472
			c11.038,0,20.018-8.979,20.018-20.018c0-1.735-0.245-3.411-0.662-5.018h10.569c-0.692,22.695-4.81,50.669-18.999,68.491
			c-8.726,10.959-17.25,13.012-18.128,13.198c-0.18,0.024-0.195,0.034-0.404,0.081c-3.227,0.726-6.438,1.095-9.544,1.095
			c-13.826,0.001-25.547-7.32-37.956-15.072c-14.038-8.767-29.947-18.705-50.855-18.705s-36.819,9.938-50.857,18.705
			c-12.409,7.751-24.13,15.072-37.954,15.072c-3.103,0-6.314-0.368-9.542-1.095c-0.208-0.047-0.224-0.057-0.404-0.081
			c-0.878-0.187-9.403-2.239-18.128-13.198c-14.188-17.821-18.307-45.795-18.999-68.491H130.686z M171.001,497h-40.5v-46.333
			c0-4.142-3.358-7.5-7.5-7.5c-4.142,0-7.5,3.358-7.5,7.5V497H80.834c-3.349-32.122,2.038-60.055,16.045-83.111
			c9.994-16.451,22.568-27.488,32.975-34.529c3.257,5.386,6.802,10.686,10.532,15.421c5.568,7.069,12.741,15.207,21.935,17.293
			c2.827,0.69,5.921,0.571,8.68-0.371V497z M186.001,497.001v-53.873c2.246,2.067,4.508,4.117,6.799,6.123
			c20.231,17.712,42.841,33.723,67.386,47.75H186.001z M326.001,497h-33.774c-3.33-1.629-6.272-3.106-8.956-4.498
			c-29.777-15.441-56.892-33.79-80.591-54.538c-5.727-5.014-11.327-10.247-16.679-15.584v-10.639
			c0.235,0.336,0.475,0.667,0.713,1.001c3.734,5.25,7.838,10.367,12.279,15.088c8.782,9.333,22.084,20.458,35.6,20.457
			c0.064,0,0.129-0.005,0.192-0.005c6.01-0.044,12.672-2.17,18.092-9.15c22.172,15.445,46.716,28.966,73.124,40.278V497z
			 M326.001,463.034c-12.285-5.482-24.123-11.465-35.465-17.91c8.657-3.975,16.583-11.036,22.473-17.295
			c0.022-0.023,1.488-1.611,2.194-2.402c3.871-4.333,7.469-8.925,10.798-13.687V463.034z M415.123,413.889
			c14.007,23.056,19.395,50.99,16.045,83.111h-34.667v-46.333c0-4.142-3.358-7.5-7.5-7.5c-4.142,0-7.5,3.358-7.5,7.5V497h-40.5
			v-85.297c2.78,0.929,5.834,1.018,8.684,0.37c6.418-1.458,13.335-6.725,20.693-15.745c0.411-0.503,0.816-1.011,1.218-1.522
			c3.738-4.742,7.289-10.051,10.552-15.447C392.554,386.4,405.128,397.438,415.123,413.889z M425.733,270.259
			c-0.247,0.773-0.363,1.602-0.349,2.413c0,0.022-0.004,0.044-0.004,0.067c-0.029,56.479-12.459,75.321-15.801,75.321
			c-0.901,0-4.567-2.085-9.422-11.347c-1.348-2.573-4.047-4.131-6.964-4.011c-2.902,0.125-5.471,1.914-6.595,4.593
			c-6.645,15.841-14.92,31.385-22.705,42.644c-7.063,10.215-12.315,14.899-15.406,16.665c-0.724,0.414-1.613,0.896-2.483,0.896
			c-0.006-0.002-0.119-0.065-0.311-0.247c-0.852-0.805-3.261-3.955-4.767-14.605c-0.486-3.436-3.391-6.17-6.854-6.422
			c-3.084-0.225-6.113,1.54-7.398,4.363c-12.561,27.581-36.042,52.699-49.265,52.699c-13.112-0.001-13.456-24.365-13.919-33.276
			c-0.207-3.985-3.499-7.11-7.49-7.11c-3.991,0-7.283,3.125-7.49,7.11c-0.365,7.029-0.847,14.177-3.048,20.911
			c-1.622,4.962-4.425,12.167-10.652,12.35c-0.079,0.001-0.159,0.001-0.228,0.001c-13.221,0-36.698-25.112-49.255-52.686
			c-1.235-2.713-4.077-4.495-7.081-4.386c-2.848,0.104-5.508,1.928-6.635,4.544c-0.566,1.314-0.656,2.774-0.889,4.172
			c-0.002,0.015-0.005,0.031-0.007,0.045c-1.708,9.987-4.201,12.173-4.687,12.49c-0.047,0.03-0.077,0.045-0.101,0.045
			c-0.688,0-1.333-0.312-1.931-0.621c-2.981-1.525-8.424-6.146-15.887-16.941c-7.784-11.259-16.06-26.802-22.704-42.643
			c-1.124-2.679-3.693-4.467-6.595-4.592c-2.898-0.126-5.615,1.438-6.964,4.011c-4.855,9.262-8.521,11.347-9.422,11.347
			c-3.342,0-15.772-18.84-15.8-75.328c0-0.018-0.003-0.035-0.003-0.053c0.022-0.818-0.101-1.642-0.351-2.42
			c-5.861-18.315-8.59-37.626-8.128-56.846h26.962c2.364,85.061,44.885,95.562,49.388,96.435c4.263,0.949,8.534,1.43,12.699,1.43
			c18.123,0,32.244-8.82,45.9-17.35c13.526-8.448,26.302-16.427,42.91-16.427c16.608,0,29.382,7.979,42.907,16.428
			c13.656,8.53,27.773,17.351,45.905,17.35c4.167,0,8.438-0.481,12.698-1.43c4.503-0.873,47.023-11.374,49.388-96.435h26.962
			c0.033,1.371,0.067,2.744,0.067,4.092C433.928,235.378,431.174,253.232,425.733,270.259z M442.602,266.008
			c0.046-0.173,2.053-8.329,2.824-12.274c2.795-14.294,3.904-28.907,3.344-43.459c-0.032-0.831-0.054-1.659-0.097-2.493
			c0.182-0.307,0.364-0.613,0.545-0.918c12.99,3.439,22.301,15.221,22.301,29.075C471.519,252.139,458.653,265.389,442.602,266.008z
			"/>
	</g>
</g>
<g>
</g>
<g>
</g>
<g>
</g>
<g>
</g>
<g>
</g>
<g>
</g>
<g>
</g>
<g>
</g>
<g>
</g>
<g>
</g>
<g>
</g>
<g>
</g>
<g>
</g>
<g>
</g>
<g>
</g>
</svg>
