<?xml version="1.0" encoding="iso-8859-1"?>
<!-- Generator: Adobe Illustrator 18.0.0, SVG Export Plug-In . SVG Version: 6.00 Build 0)  -->
<!DOCTYPE svg PUBLIC "-//W3C//DTD SVG 1.1//EN" "http://www.w3.org/Graphics/SVG/1.1/DTD/svg11.dtd">
<svg version="1.1" id="Capa_1" xmlns="http://www.w3.org/2000/svg" xmlns:xlink="http://www.w3.org/1999/xlink" x="0px" y="0px"
	 viewBox="0 0 443 443" style="enable-background:new 0 0 443 443;" xml:space="preserve">
<g>
	<path d="M321.682,375.03h-8.621v-83.47c0-43.084-29.914-79.306-70.061-89.005v-13.997c19.546-4.527,37.34-15.214,50.633-30.527
		c14.865-17.125,23.164-39.024,23.367-61.665c0.468-52.37-41.736-95.595-94.079-96.356C222.441,0.003,221.963,0,221.486,0
		c-45.817,0-85.128,32.376-93.783,77.483c-0.254,1.332-0.383,2.696-0.383,4.057c0,11.833,9.654,21.46,21.52,21.46
		c10.271,0,19.15-7.357,21.113-17.495C174.721,60.876,196.399,43,221.5,43c14.147,0,27.424,5.569,37.385,15.682
		c9.957,10.11,15.322,23.475,15.106,37.634C273.558,124.815,249.602,148,220.59,148H207.5c-4.142,0-7.5,3.358-7.5,7.5v47.056
		c-40.147,9.698-70.061,45.921-70.061,89.005v83.47h-8.621c-4.142,0-7.5,3.358-7.5,7.5v52.97c0,4.142,3.358,7.5,7.5,7.5h200.364
		c4.142,0,7.5-3.358,7.5-7.5v-52.97C329.182,378.388,325.824,375.03,321.682,375.03z M215,163h5.59
		c37.159,0,67.842-29.812,68.399-66.456c0.277-18.208-6.619-35.393-19.418-48.388C256.769,35.158,239.697,28,221.5,28
		c-32.271,0-60.143,22.986-66.273,54.654c-0.6,3.098-3.286,5.346-6.387,5.346c-3.595,0-6.52-2.898-6.52-6.46
		c0-0.419,0.04-0.837,0.116-1.237c7.37-38.411,41.097-65.891,80.265-65.294c44.12,0.642,79.693,37.079,79.299,81.224
		c-0.171,19.077-7.166,37.532-19.695,51.966c-12.408,14.295-29.453,23.808-47.995,26.787c-3.636,0.584-6.31,3.722-6.31,7.405v17.843
		c-2.148-0.151-4.314-0.234-6.5-0.234h0c-2.186,0-4.352,0.082-6.5,0.234V163z M144.939,291.561
		c0-42.216,34.345-76.561,76.561-76.561s76.561,34.345,76.561,76.561v83.47h-20.086c0.011-0.166,0.025-0.331,0.025-0.5V345.5
		c0-4.142-3.358-7.5-7.5-7.5s-7.5,3.358-7.5,7.5v29.03c0,0.169,0.014,0.334,0.025,0.5H198V329.5c0-4.142-3.358-7.5-7.5-7.5
		s-7.5,3.358-7.5,7.5v45.53h-38.061V291.561z M314.182,428H128.818v-37.97h185.364V428z"/>
	<path d="M224.5,328.03c4.142,0,7.5-3.358,7.5-7.5V267.5c0-4.142-3.358-7.5-7.5-7.5s-7.5,3.358-7.5,7.5v53.03
		C217,324.672,220.358,328.03,224.5,328.03z"/>
	<path d="M190.5,308.03c4.142,0,7.5-3.358,7.5-7.5V287.5c0-4.142-3.358-7.5-7.5-7.5s-7.5,3.358-7.5,7.5v13.03
		C183,304.672,186.358,308.03,190.5,308.03z"/>
</g>
<g>
</g>
<g>
</g>
<g>
</g>
<g>
</g>
<g>
</g>
<g>
</g>
<g>
</g>
<g>
</g>
<g>
</g>
<g>
</g>
<g>
</g>
<g>
</g>
<g>
</g>
<g>
</g>
<g>
</g>
</svg>
